<svg viewBox="0 0 800 380" xmlns="http://www.w3.org/2000/svg" style="background:linear-gradient(180deg,#0a1628 0%,#112240 100%);">
  <polygon points="0,300 100,220 200,260 350,180 500,240 650,200 800,280 800,380 0,380" fill="#0d2137"/>
  <polygon points="0,300 100,220 200,260 350,180 500,240 650,200 800,280" fill="none" stroke="#1a3a5c" stroke-width="1.5"/>
  <rect x="332" y="148" width="36" height="24" rx="4" fill="#f59e0b" fill-opacity="0.2" stroke="#f59e0b" stroke-width="1.5"/>
  <text x="350" y="164" text-anchor="middle" fill="#f59e0b" font-size="9" font-weight="bold">S</text>
  <text x="350" y="140" text-anchor="middle" fill="#f59e0b" font-size="8">SENSOR</text>
  <text x="350" y="195" text-anchor="middle" fill="#f59e0b" font-size="11" opacity="0.7">22*C</text>
  <rect x="82" y="190" width="36" height="24" rx="4" fill="#f59e0b" fill-opacity="0.2" stroke="#f59e0b" stroke-width="1.5"/>
  <text x="100" y="206" text-anchor="middle" fill="#f59e0b" font-size="9" font-weight="bold">S</text>
  <text x="100" y="183" text-anchor="middle" fill="#f59e0b" font-size="8">SENSOR</text>
  <text x="100" y="235" text-anchor="middle" fill="#f59e0b" font-size="11" opacity="0.7">18*C</text>
  <rect x="632" y="168" width="36" height="24" rx="4" fill="#f59e0b" fill-opacity="0.2" stroke="#f59e0b" stroke-width="1.5"/>
  <text x="650" y="184" text-anchor="middle" fill="#f59e0b" font-size="9" font-weight="bold">S</text>
  <text x="650" y="161" text-anchor="middle" fill="#f59e0b" font-size="8">SENSOR</text>
  <text x="650" y="210" text-anchor="middle" fill="#f59e0b" font-size="11" opacity="0.7">85%</text>
  <rect x="382" y="55" width="36" height="24" rx="4" fill="#00d2ff" fill-opacity="0.2" stroke="#00d2ff" stroke-width="2"/>
  <text x="400" y="71" text-anchor="middle" fill="#00d2ff" font-size="9" font-weight="bold">R</text>
  <text x="400" y="48" text-anchor="middle" fill="#00d2ff" font-size="8">ROUTER</text>
  <rect x="540" y="55" width="42" height="24" rx="4" fill="#a78bfa" fill-opacity="0.2" stroke="#a78bfa" stroke-width="1.5"/>
  <text x="561" y="71" text-anchor="middle" fill="#a78bfa" font-size="8" font-weight="bold">MQTT</text>
  <text x="561" y="48" text-anchor="middle" fill="#a78bfa" font-size="7">ROUTER_LATE</text>
  <ellipse cx="700" cy="50" rx="50" ry="22" fill="#a78bfa" fill-opacity="0.08" stroke="#a78bfa" stroke-width="1" stroke-dasharray="3,3"/>
  <text x="700" y="48" text-anchor="middle" fill="#a78bfa" font-size="8">jugomesh.com</text>
  <text x="700" y="60" text-anchor="middle" fill="#a78bfa" font-size="7">dashboard</text>
  <line x1="350" y1="148" x2="400" y2="79" stroke="#f59e0b" stroke-width="1" opacity="0.5" stroke-dasharray="4,4"/>
  <line x1="100" y1="190" x2="400" y2="79" stroke="#f59e0b" stroke-width="1" opacity="0.4" stroke-dasharray="4,4"/>
  <line x1="650" y1="168" x2="561" y2="79" stroke="#f59e0b" stroke-width="1" opacity="0.4" stroke-dasharray="4,4"/>
  <line x1="418" y1="67" x2="540" y2="67" stroke="#00d2ff" stroke-width="1" opacity="0.4" stroke-dasharray="3,3"/>
  <line x1="582" y1="60" x2="650" y2="50" stroke="#a78bfa" stroke-width="1" opacity="0.4" stroke-dasharray="3,3"/>
  <text x="250" y="130" text-anchor="middle" fill="#f59e0b" font-size="8" opacity="0.6">telemetrija</text>
  <text x="400" y="370" text-anchor="middle" fill="#8892a4" font-size="10">Senzori salju telemetriju — ROUTER prosledjuje — MQTT GW salje na dashboard</text>
</svg>