<svg viewBox="0 0 800 320" xmlns="http://www.w3.org/2000/svg" style="background:linear-gradient(180deg,#0a1628 0%,#112240 100%);">
  <rect x="50" y="200" width="700" height="40" fill="#1a2d4a" rx="5"/>
  <line x1="100" y1="220" x2="150" y2="220" stroke="#3a4d6a" stroke-width="2" stroke-dasharray="10,10"/>
  <line x1="200" y1="220" x2="250" y2="220" stroke="#3a4d6a" stroke-width="2" stroke-dasharray="10,10"/>
  <line x1="300" y1="220" x2="350" y2="220" stroke="#3a4d6a" stroke-width="2" stroke-dasharray="10,10"/>
  <line x1="400" y1="220" x2="450" y2="220" stroke="#3a4d6a" stroke-width="2" stroke-dasharray="10,10"/>
  <line x1="500" y1="220" x2="550" y2="220" stroke="#3a4d6a" stroke-width="2" stroke-dasharray="10,10"/>
  <line x1="600" y1="220" x2="650" y2="220" stroke="#3a4d6a" stroke-width="2" stroke-dasharray="10,10"/>
  <rect x="340" y="175" width="70" height="30" rx="8" fill="#f59e0b" fill-opacity="0.15" stroke="#f59e0b" stroke-width="1.5"/>
  <circle cx="355" cy="208" r="7" fill="#1a2d4a" stroke="#f59e0b" stroke-width="1"/>
  <circle cx="395" cy="208" r="7" fill="#1a2d4a" stroke="#f59e0b" stroke-width="1"/>
  <text x="375" y="193" text-anchor="middle" fill="#f59e0b" font-size="9" font-weight="bold">TRACKER</text>
  <circle cx="180" cy="190" r="4" fill="#f59e0b" opacity="0.2"/>
  <circle cx="220" cy="190" r="4" fill="#f59e0b" opacity="0.3"/>
  <circle cx="260" cy="190" r="4" fill="#f59e0b" opacity="0.4"/>
  <circle cx="300" cy="190" r="4" fill="#f59e0b" opacity="0.6"/>
  <line x1="415" y1="190" x2="460" y2="190" stroke="#f59e0b" stroke-width="1.5" opacity="0.6"/>
  <polygon points="460,185 470,190 460,195" fill="#f59e0b" opacity="0.6"/>
  <line x1="150" y1="50" x2="150" y2="120" stroke="#445" stroke-width="3"/>
  <line x1="130" y1="120" x2="170" y2="120" stroke="#445" stroke-width="2"/>
  <line x1="135" y1="90" x2="165" y2="90" stroke="#445" stroke-width="1.5"/>
  <rect x="132" y="30" width="36" height="22" rx="4" fill="#00d2ff" fill-opacity="0.2" stroke="#00d2ff" stroke-width="2"/>
  <text x="150" y="45" text-anchor="middle" fill="#00d2ff" font-size="9" font-weight="bold">R</text>
  <text x="150" y="24" text-anchor="middle" fill="#00d2ff" font-size="8">ROUTER</text>
  <line x1="650" y1="50" x2="650" y2="120" stroke="#445" stroke-width="3"/>
  <line x1="630" y1="120" x2="670" y2="120" stroke="#445" stroke-width="2"/>
  <line x1="635" y1="90" x2="665" y2="90" stroke="#445" stroke-width="1.5"/>
  <rect x="632" y="30" width="36" height="22" rx="4" fill="#00d2ff" fill-opacity="0.2" stroke="#00d2ff" stroke-width="2"/>
  <text x="650" y="45" text-anchor="middle" fill="#00d2ff" font-size="9" font-weight="bold">R</text>
  <text x="650" y="24" text-anchor="middle" fill="#00d2ff" font-size="8">ROUTER</text>
  <rect x="380" y="65" width="40" height="40" rx="3" fill="#152a4a" stroke="#2a4a6a" stroke-width="1"/>
  <polygon points="370,67 400,42 430,67" fill="#1a3050" stroke="#2a4a6a" stroke-width="1"/>
  <rect x="388" y="52" width="24" height="16" rx="3" fill="#22d3ee" fill-opacity="0.15" stroke="#22d3ee" stroke-width="1.5"/>
  <text x="400" y="63" text-anchor="middle" fill="#22d3ee" font-size="7" font-weight="bold">CB</text>
  <text x="400" y="36" text-anchor="middle" fill="#22d3ee" font-size="7">CLIENT_BASE</text>
  <line x1="375" y1="175" x2="150" y2="52" stroke="#f59e0b" stroke-width="1" opacity="0.3" stroke-dasharray="4,4"/>
  <line x1="375" y1="175" x2="400" y2="105" stroke="#22d3ee" stroke-width="1.2" opacity="0.5" stroke-dasharray="4,4"/>
  <line x1="375" y1="175" x2="650" y2="52" stroke="#f59e0b" stroke-width="1" opacity="0.2" stroke-dasharray="4,4"/>
  <line x1="400" y1="105" x2="150" y2="52" stroke="#00d2ff" stroke-width="1" opacity="0.3" stroke-dasharray="3,3"/>
  <line x1="400" y1="105" x2="650" y2="52" stroke="#00d2ff" stroke-width="1" opacity="0.3" stroke-dasharray="3,3"/>
  <text x="400" y="270" text-anchor="middle" fill="#8892a4" font-size="9">Tracker u autu salje GPS poziciju — CLIENT_BASE kod kuce ima prioritet za prosledjivanje</text>
  <rect x="440" y="78" width="16" height="24" rx="3" fill="#4ade80" fill-opacity="0.2" stroke="#4ade80" stroke-width="1"/>
  <text x="448" y="94" text-anchor="middle" fill="#4ade80" font-size="8">T</text>
  <text x="470" y="93" text-anchor="start" fill="#4ade80" font-size="7">telefon</text>
</svg>