<svg viewBox="0 0 800 340" xmlns="http://www.w3.org/2000/svg" style="background:linear-gradient(180deg,#0a1628 0%,#112240 100%);">
  <rect x="300" y="30" width="200" height="60" rx="5" fill="#a78bfa" fill-opacity="0.1" stroke="#a78bfa" stroke-width="1.5"/>
  <text x="400" y="55" text-anchor="middle" fill="#a78bfa" font-size="12">BINA</text>
  <text x="400" y="75" text-anchor="middle" fill="#a78bfa" font-size="8">ROUTER ovde</text>
  <rect x="465" y="40" width="30" height="20" rx="4" fill="#00d2ff" fill-opacity="0.3" stroke="#00d2ff" stroke-width="1.5"/>
  <text x="480" y="54" text-anchor="middle" fill="#00d2ff" font-size="8" font-weight="bold">R</text>
  <circle cx="200" cy="170" r="8" fill="#f87171" fill-opacity="0.3" stroke="#f87171" stroke-width="1"/>
  <circle cx="230" cy="160" r="8" fill="#f87171" fill-opacity="0.3" stroke="#f87171" stroke-width="1"/>
  <circle cx="260" cy="175" r="8" fill="#f87171" fill-opacity="0.3" stroke="#f87171" stroke-width="1"/>
  <circle cx="300" cy="155" r="8" fill="#f87171" fill-opacity="0.3" stroke="#f87171" stroke-width="1"/>
  <circle cx="330" cy="170" r="8" fill="#f87171" fill-opacity="0.3" stroke="#f87171" stroke-width="1"/>
  <circle cx="360" cy="160" r="8" fill="#f87171" fill-opacity="0.3" stroke="#f87171" stroke-width="1"/>
  <circle cx="390" cy="175" r="8" fill="#f87171" fill-opacity="0.3" stroke="#f87171" stroke-width="1"/>
  <circle cx="420" cy="155" r="8" fill="#f87171" fill-opacity="0.3" stroke="#f87171" stroke-width="1"/>
  <circle cx="450" cy="170" r="8" fill="#f87171" fill-opacity="0.3" stroke="#f87171" stroke-width="1"/>
  <circle cx="480" cy="160" r="8" fill="#f87171" fill-opacity="0.3" stroke="#f87171" stroke-width="1"/>
  <circle cx="510" cy="175" r="8" fill="#f87171" fill-opacity="0.3" stroke="#f87171" stroke-width="1"/>
  <circle cx="540" cy="165" r="8" fill="#f87171" fill-opacity="0.3" stroke="#f87171" stroke-width="1"/>
  <circle cx="280" cy="195" r="8" fill="#f87171" fill-opacity="0.3" stroke="#f87171" stroke-width="1"/>
  <circle cx="340" cy="200" r="8" fill="#f87171" fill-opacity="0.3" stroke="#f87171" stroke-width="1"/>
  <circle cx="400" cy="195" r="8" fill="#f87171" fill-opacity="0.3" stroke="#f87171" stroke-width="1"/>
  <circle cx="460" cy="200" r="8" fill="#f87171" fill-opacity="0.3" stroke="#f87171" stroke-width="1"/>
  <text x="370" y="135" text-anchor="middle" fill="#f87171" font-size="10">CLIENT_MUTE x mnogo</text>
  <circle cx="150" cy="180" r="10" fill="#4ade80" fill-opacity="0.3" stroke="#4ade80" stroke-width="1.5"/>
  <text x="150" y="184" text-anchor="middle" fill="#4ade80" font-size="8" font-weight="bold">C</text>
  <circle cx="580" cy="170" r="10" fill="#4ade80" fill-opacity="0.3" stroke="#4ade80" stroke-width="1.5"/>
  <text x="580" y="174" text-anchor="middle" fill="#4ade80" font-size="8" font-weight="bold">C</text>
  <rect x="100" y="245" width="250" height="55" rx="8" fill="rgba(0,210,255,0.05)" stroke="rgba(0,210,255,0.2)" stroke-width="1"/>
  <text x="225" y="268" text-anchor="middle" fill="#00d2ff" font-size="10" font-weight="bold">Dobra praksa</text>
  <text x="225" y="284" text-anchor="middle" fill="#8892a4" font-size="9">Vecina na CLIENT_MUTE</text>
  <text x="225" y="296" text-anchor="middle" fill="#8892a4" font-size="9">Samo 2-3 CLIENT-a prosledjuju</text>
  <rect x="450" y="245" width="250" height="55" rx="8" fill="rgba(255,80,80,0.05)" stroke="rgba(255,80,80,0.2)" stroke-width="1"/>
  <text x="575" y="268" text-anchor="middle" fill="#f87171" font-size="10" font-weight="bold">Losa praksa</text>
  <text x="575" y="284" text-anchor="middle" fill="#8892a4" font-size="9">Svi na CLIENT ili ROUTER</text>
  <text x="575" y="296" text-anchor="middle" fill="#8892a4" font-size="9">= kolizije, zagusenje kanala</text>
  <text x="400" y="335" text-anchor="middle" fill="#8892a4" font-size="10">Na festivalu: vecina na CLIENT_MUTE, samo par cvorova prosledjuje</text>
</svg>