<svg viewBox="0 0 800 400" xmlns="http://www.w3.org/2000/svg" style="background:linear-gradient(180deg,#0a1628 0%,#112240 100%);">
  <polygon points="250,350 400,80 550,350" fill="#1a3a5c" stroke="#2a5a8c" stroke-width="1.5"/>
  <polygon points="100,350 220,180 340,350" fill="#15304d" stroke="#2a5a8c" stroke-width="1"/>
  <polygon points="460,350 600,150 740,350" fill="#15304d" stroke="#2a5a8c" stroke-width="1"/>
  <rect x="0" y="345" width="800" height="55" fill="#0d2137"/>
  <rect x="380" y="55" width="40" height="30" rx="5" fill="#00d2ff" fill-opacity="0.2" stroke="#00d2ff" stroke-width="2"/>
  <text x="400" y="75" text-anchor="middle" fill="#00d2ff" font-size="11" font-weight="bold">R</text>
  <text x="400" y="48" text-anchor="middle" fill="#00d2ff" font-size="10">ROUTER</text>
  <line x1="400" y1="55" x2="400" y2="30" stroke="#00d2ff" stroke-width="2"/>
  <circle cx="400" cy="27" r="3" fill="#00d2ff"/>
  <circle cx="400" cy="70" r="30" fill="none" stroke="#00d2ff" stroke-width="0.5" opacity="0.3"/>
  <circle cx="400" cy="70" r="60" fill="none" stroke="#00d2ff" stroke-width="0.5" opacity="0.2"/>
  <circle cx="400" cy="70" r="100" fill="none" stroke="#00d2ff" stroke-width="0.5" opacity="0.1"/>
  <rect x="420" y="60" width="20" height="12" rx="2" fill="#ffd700" fill-opacity="0.3" stroke="#ffd700" stroke-width="1"/>
  <text x="430" y="69" text-anchor="middle" fill="#ffd700" font-size="6">SOL</text>
  <rect x="110" y="310" width="36" height="24" rx="4" fill="#4ade80" fill-opacity="0.2" stroke="#4ade80" stroke-width="1.5"/>
  <text x="128" y="326" text-anchor="middle" fill="#4ade80" font-size="9" font-weight="bold">C</text>
  <text x="128" y="305" text-anchor="middle" fill="#4ade80" font-size="8">CLIENT</text>
  <rect x="190" y="320" width="36" height="24" rx="4" fill="#4ade80" fill-opacity="0.2" stroke="#4ade80" stroke-width="1.5"/>
  <text x="208" y="336" text-anchor="middle" fill="#4ade80" font-size="9" font-weight="bold">C</text>
  <rect x="570" y="310" width="36" height="24" rx="4" fill="#4ade80" fill-opacity="0.2" stroke="#4ade80" stroke-width="1.5"/>
  <text x="588" y="326" text-anchor="middle" fill="#4ade80" font-size="9" font-weight="bold">C</text>
  <text x="588" y="305" text-anchor="middle" fill="#4ade80" font-size="8">CLIENT</text>
  <rect x="660" y="315" width="36" height="24" rx="4" fill="#4ade80" fill-opacity="0.2" stroke="#4ade80" stroke-width="1.5"/>
  <text x="678" y="331" text-anchor="middle" fill="#4ade80" font-size="9" font-weight="bold">C</text>
  <rect x="340" y="155" width="36" height="24" rx="4" fill="#f59e0b" fill-opacity="0.2" stroke="#f59e0b" stroke-width="1.5"/>
  <text x="358" y="171" text-anchor="middle" fill="#f59e0b" font-size="9" font-weight="bold">S</text>
  <text x="358" y="150" text-anchor="middle" fill="#f59e0b" font-size="8">SENSOR</text>
  <line x1="400" y1="85" x2="128" y2="310" stroke="#00d2ff" stroke-width="1" opacity="0.4" stroke-dasharray="4,4"/>
  <line x1="400" y1="85" x2="208" y2="320" stroke="#00d2ff" stroke-width="1" opacity="0.4" stroke-dasharray="4,4"/>
  <line x1="400" y1="85" x2="588" y2="310" stroke="#00d2ff" stroke-width="1" opacity="0.4" stroke-dasharray="4,4"/>
  <line x1="400" y1="85" x2="678" y2="315" stroke="#00d2ff" stroke-width="1" opacity="0.4" stroke-dasharray="4,4"/>
  <line x1="395" y1="75" x2="358" y2="155" stroke="#f59e0b" stroke-width="1" opacity="0.5" stroke-dasharray="3,3"/>
  <text x="128" y="365" text-anchor="middle" fill="#8892a4" font-size="9">Selo A</text>
  <text x="628" y="365" text-anchor="middle" fill="#8892a4" font-size="9">Selo B</text>
  <text x="400" y="395" text-anchor="middle" fill="#8892a4" font-size="10">Planinski ROUTER povezuje dva sela na 30+ km</text>
</svg>