<svg viewBox="0 0 800 300" xmlns="http://www.w3.org/2000/svg" style="background:linear-gradient(180deg,#0a1628 0%,#112240 100%);">
  <rect x="60" y="130" width="80" height="70" rx="3" fill="#152a4a" stroke="#2a4a6a" stroke-width="1.5"/>
  <polygon points="50,132 100,90 150,132" fill="#1a3050" stroke="#2a4a6a" stroke-width="1"/>
  <rect x="85" y="160" width="20" height="35" rx="2" fill="#1a3d6d"/>
  <rect x="70" y="145" width="14" height="14" rx="1" fill="#1a3d6d"/>
  <text x="100" y="78" text-anchor="middle" fill="#22d3ee" font-size="9" font-weight="bold">CLIENT_BASE</text>
  <rect x="115" y="100" width="30" height="20" rx="3" fill="#22d3ee" fill-opacity="0.2" stroke="#22d3ee" stroke-width="1.5"/>
  <text x="130" y="114" text-anchor="middle" fill="#22d3ee" font-size="8" font-weight="bold">CB</text>
  <text x="100" y="220" text-anchor="middle" fill="#8892a4" font-size="9">Kuca u gradu</text>
  <polygon points="330,260 400,90 470,260" fill="#1a3a5c" stroke="#2a5a8c" stroke-width="1"/>
  <rect x="382" y="65" width="36" height="22" rx="4" fill="#00d2ff" fill-opacity="0.2" stroke="#00d2ff" stroke-width="2"/>
  <text x="400" y="80" text-anchor="middle" fill="#00d2ff" font-size="9" font-weight="bold">R</text>
  <text x="400" y="58" text-anchor="middle" fill="#00d2ff" font-size="8">ROUTER</text>
  <rect x="620" y="140" width="70" height="55" rx="3" fill="#152a4a" stroke="#2a4a6a" stroke-width="1.5"/>
  <polygon points="615,142 655,110 695,142" fill="#1a3050" stroke="#2a4a6a" stroke-width="1"/>
  <rect x="640" y="160" width="15" height="30" rx="2" fill="#1a3d6d"/>
  <rect x="670" y="115" width="36" height="22" rx="4" fill="#f59e0b" fill-opacity="0.2" stroke="#f59e0b" stroke-width="1.5"/>
  <text x="688" y="130" text-anchor="middle" fill="#f59e0b" font-size="9" font-weight="bold">S</text>
  <text x="688" y="108" text-anchor="middle" fill="#f59e0b" font-size="8">SENSOR</text>
  <text x="655" y="215" text-anchor="middle" fill="#8892a4" font-size="9">Vikendica</text>
  <text x="730" y="140" text-anchor="start" fill="#f59e0b" font-size="9" opacity="0.7">5*C</text>
  <text x="730" y="155" text-anchor="start" fill="#f59e0b" font-size="9" opacity="0.7">72%</text>
  <text x="730" y="170" text-anchor="start" fill="#f59e0b" font-size="9" opacity="0.7">zatvoren</text>
  <line x1="145" y1="110" x2="382" y2="76" stroke="#22d3ee" stroke-width="1.2" opacity="0.5" stroke-dasharray="4,4"/>
  <line x1="418" y1="76" x2="670" y2="126" stroke="#f59e0b" stroke-width="1.2" opacity="0.5" stroke-dasharray="4,4"/>
  <text x="250" y="78" text-anchor="middle" fill="#8892a4" font-size="8">~15 km</text>
  <text x="550" y="85" text-anchor="middle" fill="#8892a4" font-size="8">~20 km</text>
  <rect x="30" y="235" width="140" height="26" rx="6" fill="#4ade80" fill-opacity="0.1" stroke="#4ade80" stroke-width="1"/>
  <text x="100" y="252" text-anchor="middle" fill="#4ade80" font-size="8">Vikendica: 5*C, sve OK</text>
  <text x="400" y="290" text-anchor="middle" fill="#8892a4" font-size="10">CLIENT_BASE favorizuje vikendicu — svaki njen paket ima prioritet</text>
</svg>