<svg viewBox="0 0 800 360" xmlns="http://www.w3.org/2000/svg" style="background:linear-gradient(180deg,#1a0a0a 0%,#2a1515 40%,#112240 100%);">
  <text x="700" y="30" text-anchor="end" fill="#f87171" font-size="11" opacity="0.7">Nema mobilne mreze</text>
  <text x="700" y="48" text-anchor="end" fill="#f87171" font-size="11" opacity="0.7">Nema struje</text>
  <line x1="680" y1="100" x2="695" y2="200" stroke="#555" stroke-width="3" opacity="0.4"/>
  <line x1="700" y1="90" x2="690" y2="200" stroke="#555" stroke-width="2" opacity="0.3"/>
  <text x="690" y="220" text-anchor="middle" fill="#f87171" font-size="22" opacity="0.4">X</text>
  <circle cx="120" cy="180" r="12" fill="none" stroke="#4ade80" stroke-width="1.5"/>
  <line x1="120" y1="192" x2="120" y2="230" stroke="#4ade80" stroke-width="1.5"/>
  <line x1="120" y1="210" x2="100" y2="225" stroke="#4ade80" stroke-width="1.5"/>
  <line x1="120" y1="210" x2="140" y2="225" stroke="#4ade80" stroke-width="1.5"/>
  <rect x="102" y="150" width="36" height="22" rx="4" fill="#4ade80" fill-opacity="0.2" stroke="#4ade80" stroke-width="1.5"/>
  <text x="120" y="165" text-anchor="middle" fill="#4ade80" font-size="8" font-weight="bold">CLIENT</text>
  <circle cx="320" cy="200" r="12" fill="none" stroke="#4ade80" stroke-width="1.5"/>
  <line x1="320" y1="212" x2="320" y2="250" stroke="#4ade80" stroke-width="1.5"/>
  <line x1="320" y1="230" x2="300" y2="245" stroke="#4ade80" stroke-width="1.5"/>
  <line x1="320" y1="230" x2="340" y2="245" stroke="#4ade80" stroke-width="1.5"/>
  <rect x="302" y="170" width="36" height="22" rx="4" fill="#4ade80" fill-opacity="0.2" stroke="#4ade80" stroke-width="1.5"/>
  <text x="320" y="185" text-anchor="middle" fill="#4ade80" font-size="8" font-weight="bold">CLIENT</text>
  <circle cx="530" cy="190" r="12" fill="none" stroke="#4ade80" stroke-width="1.5"/>
  <line x1="530" y1="202" x2="530" y2="240" stroke="#4ade80" stroke-width="1.5"/>
  <line x1="530" y1="220" x2="510" y2="235" stroke="#4ade80" stroke-width="1.5"/>
  <line x1="530" y1="220" x2="550" y2="235" stroke="#4ade80" stroke-width="1.5"/>
  <rect x="512" y="160" width="36" height="22" rx="4" fill="#4ade80" fill-opacity="0.2" stroke="#4ade80" stroke-width="1.5"/>
  <text x="530" y="175" text-anchor="middle" fill="#4ade80" font-size="8" font-weight="bold">CLIENT</text>
  <rect x="260" y="85" width="70" height="30" rx="8" fill="#00d2ff" fill-opacity="0.1" stroke="#00d2ff" stroke-width="1.5"/>
  <circle cx="275" cy="118" r="7" fill="#1a0a0a" stroke="#00d2ff" stroke-width="1"/>
  <circle cx="315" cy="118" r="7" fill="#1a0a0a" stroke="#00d2ff" stroke-width="1"/>
  <rect x="272" y="60" width="46" height="22" rx="4" fill="#00d2ff" fill-opacity="0.2" stroke="#00d2ff" stroke-width="2"/>
  <text x="295" y="75" text-anchor="middle" fill="#00d2ff" font-size="8" font-weight="bold">ROUTER</text>
  <text x="295" y="50" text-anchor="middle" fill="#ffd700" font-size="8">auto baterija</text>
  <line x1="120" y1="172" x2="295" y2="82" stroke="#4ade80" stroke-width="1.5" opacity="0.5" stroke-dasharray="4,4"/>
  <line x1="320" y1="170" x2="295" y2="82" stroke="#4ade80" stroke-width="1.5" opacity="0.5" stroke-dasharray="4,4"/>
  <line x1="530" y1="160" x2="295" y2="82" stroke="#4ade80" stroke-width="1.5" opacity="0.4" stroke-dasharray="4,4"/>
  <line x1="138" y1="172" x2="302" y2="182" stroke="#4ade80" stroke-width="1" opacity="0.25" stroke-dasharray="3,3"/>
  <line x1="338" y1="182" x2="512" y2="172" stroke="#4ade80" stroke-width="1" opacity="0.25" stroke-dasharray="3,3"/>
  <rect x="60" y="260" width="120" height="30" rx="8" fill="#4ade80" fill-opacity="0.1" stroke="#4ade80" stroke-width="1"/>
  <text x="120" y="279" text-anchor="middle" fill="#4ade80" font-size="9">"Svi smo OK"</text>
  <rect x="460" y="260" width="140" height="30" rx="8" fill="#4ade80" fill-opacity="0.1" stroke="#4ade80" stroke-width="1"/>
  <text x="530" y="279" text-anchor="middle" fill="#4ade80" font-size="9">"Treba nam voda"</text>
  <text x="400" y="325" text-anchor="middle" fill="#c8c8c8" font-size="10">Mesh radi bez interneta, bez struje — samo baterije i radio</text>
  <text x="400" y="348" text-anchor="middle" fill="#f87171" font-size="9" opacity="0.7">Svaki CLIENT prosledjuje jer nema infrastrukturnih ROUTER-a u blizini</text>
</svg>