<svg viewBox="0 0 800 400" xmlns="http://www.w3.org/2000/svg" style="background:linear-gradient(180deg,#0a1628 0%,#112240 100%);">
  <rect x="80" y="150" width="60" height="200" fill="#152a4a" stroke="#2a4a6a" stroke-width="1" rx="2"/>
  <rect x="160" y="200" width="50" height="150" fill="#152a4a" stroke="#2a4a6a" stroke-width="1" rx="2"/>
  <rect x="280" y="120" width="70" height="230" fill="#152a4a" stroke="#2a4a6a" stroke-width="1" rx="2"/>
  <rect x="420" y="180" width="55" height="170" fill="#152a4a" stroke="#2a4a6a" stroke-width="1" rx="2"/>
  <rect x="530" y="140" width="65" height="210" fill="#152a4a" stroke="#2a4a6a" stroke-width="1" rx="2"/>
  <rect x="650" y="190" width="50" height="160" fill="#152a4a" stroke="#2a4a6a" stroke-width="1" rx="2"/>
  <rect x="90" y="165" width="12" height="10" fill="#1a3d6d" rx="1"/><rect x="110" y="165" width="12" height="10" fill="#1a3d6d" rx="1"/>
  <rect x="90" y="185" width="12" height="10" fill="#1a3d6d" rx="1"/><rect x="110" y="185" width="12" height="10" fill="#1a3d6d" rx="1"/>
  <rect x="290" y="135" width="14" height="10" fill="#1a3d6d" rx="1"/><rect x="316" y="135" width="14" height="10" fill="#1a3d6d" rx="1"/>
  <rect x="540" y="155" width="14" height="10" fill="#1a3d6d" rx="1"/><rect x="566" y="155" width="14" height="10" fill="#1a3d6d" rx="1"/>
  <rect x="0" y="348" width="800" height="52" fill="#0d2137"/>
  <rect x="297" y="95" width="36" height="24" rx="4" fill="#00d2ff" fill-opacity="0.2" stroke="#00d2ff" stroke-width="2"/>
  <text x="315" y="111" text-anchor="middle" fill="#00d2ff" font-size="9" font-weight="bold">R</text>
  <text x="315" y="88" text-anchor="middle" fill="#00d2ff" font-size="8">ROUTER</text>
  <rect x="544" y="115" width="36" height="24" rx="4" fill="#a78bfa" fill-opacity="0.2" stroke="#a78bfa" stroke-width="2"/>
  <text x="562" y="131" text-anchor="middle" fill="#a78bfa" font-size="9" font-weight="bold">RL</text>
  <text x="562" y="108" text-anchor="middle" fill="#a78bfa" font-size="7">ROUTER_LATE</text>
  <text x="562" y="153" text-anchor="middle" fill="#a78bfa" font-size="7">MQTT GW</text>
  <rect x="92" y="125" width="36" height="24" rx="4" fill="#4ade80" fill-opacity="0.2" stroke="#4ade80" stroke-width="1.5"/>
  <text x="110" y="141" text-anchor="middle" fill="#4ade80" font-size="9" font-weight="bold">C</text>
  <text x="110" y="120" text-anchor="middle" fill="#4ade80" font-size="8">CLIENT</text>
  <rect x="360" y="330" width="36" height="24" rx="4" fill="#4ade80" fill-opacity="0.2" stroke="#4ade80" stroke-width="1.5"/>
  <text x="378" y="346" text-anchor="middle" fill="#4ade80" font-size="9" font-weight="bold">C</text>
  <text x="378" y="370" text-anchor="middle" fill="#4ade80" font-size="8">ulica</text>
  <rect x="657" y="165" width="36" height="24" rx="4" fill="#f87171" fill-opacity="0.2" stroke="#f87171" stroke-width="1.5"/>
  <text x="675" y="181" text-anchor="middle" fill="#f87171" font-size="8" font-weight="bold">CM</text>
  <text x="675" y="160" text-anchor="middle" fill="#f87171" font-size="7">CLIENT_MUTE</text>
  <line x1="315" y1="119" x2="110" y2="125" stroke="#00d2ff" stroke-width="1.2" opacity="0.4" stroke-dasharray="4,4"/>
  <line x1="315" y1="119" x2="562" y2="127" stroke="#00d2ff" stroke-width="1.2" opacity="0.4" stroke-dasharray="4,4"/>
  <line x1="315" y1="119" x2="378" y2="330" stroke="#00d2ff" stroke-width="1" opacity="0.3" stroke-dasharray="4,4"/>
  <line x1="562" y1="139" x2="675" y2="165" stroke="#a78bfa" stroke-width="1" opacity="0.4" stroke-dasharray="4,4"/>
  <ellipse cx="700" cy="70" rx="55" ry="25" fill="#a78bfa" fill-opacity="0.08" stroke="#a78bfa" stroke-width="1" stroke-dasharray="3,3"/>
  <text x="700" y="74" text-anchor="middle" fill="#a78bfa" font-size="10">MQTT</text>
  <line x1="575" y1="115" x2="660" y2="78" stroke="#a78bfa" stroke-width="1" opacity="0.4" stroke-dasharray="3,3"/>
  <text x="400" y="395" text-anchor="middle" fill="#8892a4" font-size="10">Urbana mreza: ROUTER na najvisoj zgradi, MQTT gateway za internet vezu</text>
</svg>